<svg viewBox="0 0 435 53" fill="none" xmlns="http://www.w3.org/2000/svg">
<mask id="path-1-outside-1" maskUnits="userSpaceOnUse" x="0" y="0" width="435" height="53" fill="black">
<rect fill="white" width="435" height="53"/>
<path d="M34.552 15.76C34.552 19.936 33.112 23.416 30.232 26.2C27.4 28.936 23.056 30.304 17.2 30.304H7.552V51.256H1V1.072H17.2C22.864 1.072 27.16 2.44 30.088 5.176C33.064 7.912 34.552 11.44 34.552 15.76ZM17.2 24.904C20.848 24.904 23.536 24.112 25.264 22.528C26.992 20.944 27.856 18.688 27.856 15.76C27.856 9.568 24.304 6.472 17.2 6.472H7.552V24.904H17.2Z"/>
<path d="M72.3593 40.096H50.4713L46.4393 51.256H39.5273L57.6713 1.36H65.2313L83.3033 51.256H76.3913L72.3593 40.096ZM70.4873 34.768L61.4153 9.424L52.3433 34.768H70.4873Z"/>
<path d="M117.635 51.256L105.683 30.736H97.7629V51.256H91.2109V1.072H107.411C111.203 1.072 114.395 1.72 116.987 3.016C119.627 4.312 121.595 6.064 122.891 8.272C124.187 10.48 124.835 13 124.835 15.832C124.835 19.288 123.827 22.336 121.811 24.976C119.843 27.616 116.867 29.368 112.883 30.232L125.483 51.256H117.635ZM97.7629 25.48H107.411C110.963 25.48 113.627 24.616 115.403 22.888C117.179 21.112 118.067 18.76 118.067 15.832C118.067 12.856 117.179 10.552 115.403 8.92C113.675 7.288 111.011 6.472 107.411 6.472H97.7629V25.48Z"/>
<path d="M165.904 1.072V6.4H152.224V51.256H145.672V6.4H131.92V1.072H165.904Z"/>
<path d="M212.633 1.072V51.256H206.081V28.504H180.521V51.256H173.969V1.072H180.521V23.104H206.081V1.072H212.633Z"/>
<path d="M276.568 15.76C276.568 19.936 275.128 23.416 272.248 26.2C269.416 28.936 265.072 30.304 259.216 30.304H249.568V51.256H243.016V1.072H259.216C264.88 1.072 269.176 2.44 272.104 5.176C275.08 7.912 276.568 11.44 276.568 15.76ZM259.216 24.904C262.864 24.904 265.552 24.112 267.28 22.528C269.008 20.944 269.872 18.688 269.872 15.76C269.872 9.568 266.32 6.472 259.216 6.472H249.568V24.904H259.216Z"/>
<path d="M314.375 40.096H292.487L288.455 51.256H281.543L299.687 1.36H307.247L325.319 51.256H318.407L314.375 40.096ZM312.503 34.768L303.431 9.424L294.359 34.768H312.503Z"/>
<path d="M364.115 1.072V6.4H350.435V51.256H343.883V6.4H330.131V1.072H364.115Z"/>
<path d="M378.732 6.4V23.176H397.02V28.576H378.732V45.856H399.18V51.256H372.18V1H399.18V6.4H378.732Z"/>
<path d="M415.646 45.928H433.214V51.256H409.094V1.072H415.646V45.928Z"/>
</mask>
<path d="M34.552 15.76C34.552 19.936 33.112 23.416 30.232 26.2C27.4 28.936 23.056 30.304 17.2 30.304H7.552V51.256H1V1.072H17.2C22.864 1.072 27.16 2.44 30.088 5.176C33.064 7.912 34.552 11.44 34.552 15.76ZM17.2 24.904C20.848 24.904 23.536 24.112 25.264 22.528C26.992 20.944 27.856 18.688 27.856 15.76C27.856 9.568 24.304 6.472 17.2 6.472H7.552V24.904H17.2Z" stroke="white" strokeWidth="2" mask="url(#path-1-outside-1)"/>
<path d="M72.3593 40.096H50.4713L46.4393 51.256H39.5273L57.6713 1.36H65.2313L83.3033 51.256H76.3913L72.3593 40.096ZM70.4873 34.768L61.4153 9.424L52.3433 34.768H70.4873Z" stroke="white" strokeWidth="2" mask="url(#path-1-outside-1)"/>
<path d="M117.635 51.256L105.683 30.736H97.7629V51.256H91.2109V1.072H107.411C111.203 1.072 114.395 1.72 116.987 3.016C119.627 4.312 121.595 6.064 122.891 8.272C124.187 10.48 124.835 13 124.835 15.832C124.835 19.288 123.827 22.336 121.811 24.976C119.843 27.616 116.867 29.368 112.883 30.232L125.483 51.256H117.635ZM97.7629 25.48H107.411C110.963 25.48 113.627 24.616 115.403 22.888C117.179 21.112 118.067 18.76 118.067 15.832C118.067 12.856 117.179 10.552 115.403 8.92C113.675 7.288 111.011 6.472 107.411 6.472H97.7629V25.48Z" stroke="white" strokeWidth="2" mask="url(#path-1-outside-1)"/>
<path d="M165.904 1.072V6.4H152.224V51.256H145.672V6.4H131.92V1.072H165.904Z" stroke="white" strokeWidth="2" mask="url(#path-1-outside-1)"/>
<path d="M212.633 1.072V51.256H206.081V28.504H180.521V51.256H173.969V1.072H180.521V23.104H206.081V1.072H212.633Z" stroke="white" strokeWidth="2" mask="url(#path-1-outside-1)"/>
<path d="M276.568 15.76C276.568 19.936 275.128 23.416 272.248 26.2C269.416 28.936 265.072 30.304 259.216 30.304H249.568V51.256H243.016V1.072H259.216C264.88 1.072 269.176 2.44 272.104 5.176C275.08 7.912 276.568 11.44 276.568 15.76ZM259.216 24.904C262.864 24.904 265.552 24.112 267.28 22.528C269.008 20.944 269.872 18.688 269.872 15.76C269.872 9.568 266.32 6.472 259.216 6.472H249.568V24.904H259.216Z" stroke="white" strokeWidth="2" mask="url(#path-1-outside-1)"/>
<path d="M314.375 40.096H292.487L288.455 51.256H281.543L299.687 1.36H307.247L325.319 51.256H318.407L314.375 40.096ZM312.503 34.768L303.431 9.424L294.359 34.768H312.503Z" stroke="white" strokeWidth="2" mask="url(#path-1-outside-1)"/>
<path d="M364.115 1.072V6.4H350.435V51.256H343.883V6.4H330.131V1.072H364.115Z" stroke="white" strokeWidth="2" mask="url(#path-1-outside-1)"/>
<path d="M378.732 6.4V23.176H397.02V28.576H378.732V45.856H399.18V51.256H372.18V1H399.18V6.4H378.732Z" stroke="white" strokeWidth="2" mask="url(#path-1-outside-1)"/>
<path d="M415.646 45.928H433.214V51.256H409.094V1.072H415.646V45.928Z" stroke="white" strokeWidth="2" mask="url(#path-1-outside-1)"/>
</svg>
