<?xml version="1.0" standalone="no"?>
<!DOCTYPE svg PUBLIC "-//W3C//DTD SVG 20010904//EN"
 "http://www.w3.org/TR/2001/REC-SVG-20010904/DTD/svg10.dtd">
<svg version="1.0" xmlns="http://www.w3.org/2000/svg"
 width="1280.000000pt" height="1280.000000pt" viewBox="0 0 1280.000000 1280.000000"
 preserveAspectRatio="xMidYMid meet">
<metadata>
Created by potrace 1.15, written by Peter Selinger 2001-2017
</metadata>
<g transform="translate(0.000000,1280.000000) scale(0.100000,-0.100000)"
fill="#000000" stroke="none">
<path d="M7075 10879 c-885 -73 -1774 -394 -2565 -924 -507 -340 -918 -727
-1271 -1198 -411 -548 -635 -1107 -699 -1746 -24 -241 -7 -656 35 -881 57
-301 194 -663 292 -771 l38 -42 175 7 c96 4 275 13 397 20 246 14 252 16 273
82 14 41 7 68 -57 208 -176 389 -230 820 -153 1219 167 867 922 1960 1815
2629 501 375 1081 664 1642 818 80 22 153 40 161 40 8 0 -36 -52 -96 -115
-511 -532 -929 -1157 -1206 -1808 -284 -667 -648 -1933 -1071 -3722 -53 -225
-114 -477 -135 -560 -21 -82 -69 -267 -105 -410 -109 -424 -252 -963 -326
-1227 -38 -136 -69 -255 -69 -266 0 -11 9 -31 21 -46 32 -41 54 -39 524 68
500 112 546 128 662 224 34 29 82 81 108 116 106 149 227 467 370 976 l52 185
214 6 c245 7 240 7 807 100 544 89 729 137 1026 261 241 100 422 199 671 364
299 198 553 411 831 697 552 565 912 1158 1105 1815 142 487 183 1028 114
1511 -19 134 -75 361 -121 494 -194 556 -595 1046 -1107 1349 -223 132 -352
181 -917 352 -493 148 -652 175 -1060 181 -146 2 -314 -1 -375 -6z m1195 -486
c154 -78 318 -201 462 -347 310 -312 502 -729 575 -1246 22 -158 25 -681 5
-865 -88 -801 -344 -1502 -809 -2210 -538 -819 -1133 -1338 -1788 -1562 -111
-38 -133 -38 -372 -7 -108 14 -319 56 -328 66 -13 13 375 1488 577 2192 539
1881 960 2961 1410 3616 44 63 94 135 111 158 26 35 32 53 32 92 0 72 -24 92
-151 125 -57 16 -104 30 -104 33 0 3 69 2 153 -1 150 -7 153 -7 227 -44z"/>
</g>
</svg>
